<svg xmlns="http://www.w3.org/2000/svg" width="1100" height="420">
<text x="550.0" y="24" text-anchor="middle" font-size="18" font-family="Arial">Backtest: actual vs forecast consumption (total sector)</text>
<line x1="70" y1="50" x2="70" y2="350" stroke="#333"/>
<line x1="70" y1="350" x2="1080" y2="350" stroke="#333"/>
<text x="16" y="200.0" transform="rotate(-90 16,200.0)" font-size="12" font-family="Arial">MWh</text>
<line x1="70" y1="350.0" x2="1080" y2="350.0" stroke="#eee"/>
<text x="62" y="354.0" text-anchor="end" font-size="10" font-family="Arial">13128.73</text>
<line x1="70" y1="290.0000000000001" x2="1080" y2="290.0000000000001" stroke="#eee"/>
<text x="62" y="294.0000000000001" text-anchor="end" font-size="10" font-family="Arial">13782.34</text>
<line x1="70" y1="229.99999999999997" x2="1080" y2="229.99999999999997" stroke="#eee"/>
<text x="62" y="233.99999999999997" text-anchor="end" font-size="10" font-family="Arial">14435.95</text>
<line x1="70" y1="170.00000000000006" x2="1080" y2="170.00000000000006" stroke="#eee"/>
<text x="62" y="174.00000000000006" text-anchor="end" font-size="10" font-family="Arial">15089.56</text>
<line x1="70" y1="110.00000000000009" x2="1080" y2="110.00000000000009" stroke="#eee"/>
<text x="62" y="114.00000000000009" text-anchor="end" font-size="10" font-family="Arial">15743.17</text>
<line x1="70" y1="50.0" x2="1080" y2="50.0" stroke="#eee"/>
<text x="62" y="54.0" text-anchor="end" font-size="10" font-family="Arial">16396.78</text>
<line x1="70.0" y1="350" x2="70.0" y2="355" stroke="#333"/>
<text x="70.0" y="368" transform="rotate(45 70.0,368)" font-size="9" font-family="Arial">2023-07</text>
<line x1="161.8181818181818" y1="350" x2="161.8181818181818" y2="355" stroke="#333"/>
<text x="161.8181818181818" y="368" transform="rotate(45 161.8181818181818,368)" font-size="9" font-family="Arial">2023-08</text>
<line x1="253.63636363636365" y1="350" x2="253.63636363636365" y2="355" stroke="#333"/>
<text x="253.63636363636365" y="368" transform="rotate(45 253.63636363636365,368)" font-size="9" font-family="Arial">2023-09</text>
<line x1="345.45454545454544" y1="350" x2="345.45454545454544" y2="355" stroke="#333"/>
<text x="345.45454545454544" y="368" transform="rotate(45 345.45454545454544,368)" font-size="9" font-family="Arial">2023-10</text>
<line x1="437.2727272727273" y1="350" x2="437.2727272727273" y2="355" stroke="#333"/>
<text x="437.2727272727273" y="368" transform="rotate(45 437.2727272727273,368)" font-size="9" font-family="Arial">2023-11</text>
<line x1="529.090909090909" y1="350" x2="529.090909090909" y2="355" stroke="#333"/>
<text x="529.090909090909" y="368" transform="rotate(45 529.090909090909,368)" font-size="9" font-family="Arial">2023-12</text>
<line x1="620.9090909090909" y1="350" x2="620.9090909090909" y2="355" stroke="#333"/>
<text x="620.9090909090909" y="368" transform="rotate(45 620.9090909090909,368)" font-size="9" font-family="Arial">2024-01</text>
<line x1="712.7272727272727" y1="350" x2="712.7272727272727" y2="355" stroke="#333"/>
<text x="712.7272727272727" y="368" transform="rotate(45 712.7272727272727,368)" font-size="9" font-family="Arial">2024-02</text>
<line x1="804.5454545454546" y1="350" x2="804.5454545454546" y2="355" stroke="#333"/>
<text x="804.5454545454546" y="368" transform="rotate(45 804.5454545454546,368)" font-size="9" font-family="Arial">2024-03</text>
<line x1="896.3636363636364" y1="350" x2="896.3636363636364" y2="355" stroke="#333"/>
<text x="896.3636363636364" y="368" transform="rotate(45 896.3636363636364,368)" font-size="9" font-family="Arial">2024-04</text>
<line x1="988.1818181818181" y1="350" x2="988.1818181818181" y2="355" stroke="#333"/>
<text x="988.1818181818181" y="368" transform="rotate(45 988.1818181818181,368)" font-size="9" font-family="Arial">2024-05</text>
<line x1="1080.0" y1="350" x2="1080.0" y2="355" stroke="#333"/>
<text x="1080.0" y="368" transform="rotate(45 1080.0,368)" font-size="9" font-family="Arial">2024-06</text>
<polyline fill="none" stroke="#1f77b4" stroke-width="2" points="70.0,159.9 161.8,149.8 253.6,197.4 345.5,123.7 437.3,203.7 529.1,184.5 620.9,162.1 712.7,218.5 804.5,68.7 896.4,131.6 988.2,50.0 1080.0,138.6"/>
<rect x="910" y="40" width="10" height="10" fill="#1f77b4"/>
<text x="926" y="50" font-size="11" font-family="Arial">actual</text>
<polyline fill="none" stroke="#d62728" stroke-width="2" points="70.0,182.8 161.8,184.6 253.6,244.9 345.5,219.0 437.3,263.3 529.1,252.1 620.9,262.7 712.7,350.0 804.5,187.4 896.4,231.7 988.2,108.1 1080.0,186.7"/>
<rect x="910" y="56" width="10" height="10" fill="#d62728"/>
<text x="926" y="66" font-size="11" font-family="Arial">seasonal_naive_forecast</text>
<polyline fill="none" stroke="#2ca02c" stroke-width="2" points="70.0,186.7 161.8,186.7 253.6,186.7 345.5,186.7 437.3,186.7 529.1,186.7 620.9,186.7 712.7,186.7 804.5,186.7 896.4,186.7 988.2,186.7 1080.0,186.7"/>
<rect x="910" y="72" width="10" height="10" fill="#2ca02c"/>
<text x="926" y="82" font-size="11" font-family="Arial">last_value_naive_baseline</text>
</svg>