<svg xmlns="http://www.w3.org/2000/svg" width="1100" height="420">
<text x="550.0" y="24" text-anchor="middle" font-size="18" font-family="Arial">Backtest residuals over time (actual - forecast)</text>
<line x1="70" y1="50" x2="70" y2="350" stroke="#333"/>
<line x1="70" y1="350" x2="1080" y2="350" stroke="#333"/>
<text x="16" y="200.0" transform="rotate(-90 16,200.0)" font-size="12" font-family="Arial">MWh</text>
<line x1="70" y1="350.0" x2="1080" y2="350.0" stroke="#eee"/>
<text x="62" y="354.0" text-anchor="end" font-size="10" font-family="Arial">249.34</text>
<line x1="70" y1="290.0" x2="1080" y2="290.0" stroke="#eee"/>
<text x="62" y="294.0" text-anchor="end" font-size="10" font-family="Arial">485.91</text>
<line x1="70" y1="230.0" x2="1080" y2="230.0" stroke="#eee"/>
<text x="62" y="234.0" text-anchor="end" font-size="10" font-family="Arial">722.48</text>
<line x1="70" y1="170.0" x2="1080" y2="170.0" stroke="#eee"/>
<text x="62" y="174.0" text-anchor="end" font-size="10" font-family="Arial">959.06</text>
<line x1="70" y1="109.99999999999999" x2="1080" y2="109.99999999999999" stroke="#eee"/>
<text x="62" y="113.99999999999999" text-anchor="end" font-size="10" font-family="Arial">1195.63</text>
<line x1="70" y1="50.0" x2="1080" y2="50.0" stroke="#eee"/>
<text x="62" y="54.0" text-anchor="end" font-size="10" font-family="Arial">1432.20</text>
<line x1="70.0" y1="350" x2="70.0" y2="355" stroke="#333"/>
<text x="70.0" y="368" transform="rotate(45 70.0,368)" font-size="9" font-family="Arial">2023-07</text>
<line x1="161.8181818181818" y1="350" x2="161.8181818181818" y2="355" stroke="#333"/>
<text x="161.8181818181818" y="368" transform="rotate(45 161.8181818181818,368)" font-size="9" font-family="Arial">2023-08</text>
<line x1="253.63636363636365" y1="350" x2="253.63636363636365" y2="355" stroke="#333"/>
<text x="253.63636363636365" y="368" transform="rotate(45 253.63636363636365,368)" font-size="9" font-family="Arial">2023-09</text>
<line x1="345.45454545454544" y1="350" x2="345.45454545454544" y2="355" stroke="#333"/>
<text x="345.45454545454544" y="368" transform="rotate(45 345.45454545454544,368)" font-size="9" font-family="Arial">2023-10</text>
<line x1="437.2727272727273" y1="350" x2="437.2727272727273" y2="355" stroke="#333"/>
<text x="437.2727272727273" y="368" transform="rotate(45 437.2727272727273,368)" font-size="9" font-family="Arial">2023-11</text>
<line x1="529.090909090909" y1="350" x2="529.090909090909" y2="355" stroke="#333"/>
<text x="529.090909090909" y="368" transform="rotate(45 529.090909090909,368)" font-size="9" font-family="Arial">2023-12</text>
<line x1="620.9090909090909" y1="350" x2="620.9090909090909" y2="355" stroke="#333"/>
<text x="620.9090909090909" y="368" transform="rotate(45 620.9090909090909,368)" font-size="9" font-family="Arial">2024-01</text>
<line x1="712.7272727272727" y1="350" x2="712.7272727272727" y2="355" stroke="#333"/>
<text x="712.7272727272727" y="368" transform="rotate(45 712.7272727272727,368)" font-size="9" font-family="Arial">2024-02</text>
<line x1="804.5454545454546" y1="350" x2="804.5454545454546" y2="355" stroke="#333"/>
<text x="804.5454545454546" y="368" transform="rotate(45 804.5454545454546,368)" font-size="9" font-family="Arial">2024-03</text>
<line x1="896.3636363636364" y1="350" x2="896.3636363636364" y2="355" stroke="#333"/>
<text x="896.3636363636364" y="368" transform="rotate(45 896.3636363636364,368)" font-size="9" font-family="Arial">2024-04</text>
<line x1="988.1818181818181" y1="350" x2="988.1818181818181" y2="355" stroke="#333"/>
<text x="988.1818181818181" y="368" transform="rotate(45 988.1818181818181,368)" font-size="9" font-family="Arial">2024-05</text>
<line x1="1080.0" y1="350" x2="1080.0" y2="355" stroke="#333"/>
<text x="1080.0" y="368" transform="rotate(45 1080.0,368)" font-size="9" font-family="Arial">2024-06</text>
<polyline fill="none" stroke="#1f77b4" stroke-width="2" points="70.0,350.0 161.8,317.0 253.6,282.1 345.5,149.7 437.3,248.3 529.1,226.4 620.9,135.2 712.7,50.0 804.5,85.4 896.4,136.7 988.2,252.6 1080.0,280.4"/>
<rect x="910" y="40" width="10" height="10" fill="#1f77b4"/>
<text x="926" y="50" font-size="11" font-family="Arial">residual</text>
</svg>