<svg xmlns="http://www.w3.org/2000/svg" width="1100" height="420">
<text x="550.0" y="24" text-anchor="middle" font-size="18" font-family="Arial">Consumption: recent history + 6-month baseline forecast</text>
<line x1="70" y1="50" x2="70" y2="350" stroke="#333"/>
<line x1="70" y1="350" x2="1080" y2="350" stroke="#333"/>
<text x="16" y="200.0" transform="rotate(-90 16,200.0)" font-size="12" font-family="Arial">MWh</text>
<line x1="70" y1="350.0" x2="1080" y2="350.0" stroke="#eee"/>
<text x="62" y="354.0" text-anchor="end" font-size="10" font-family="Arial">13128.73</text>
<line x1="70" y1="290.0000000000001" x2="1080" y2="290.0000000000001" stroke="#eee"/>
<text x="62" y="294.0000000000001" text-anchor="end" font-size="10" font-family="Arial">13782.34</text>
<line x1="70" y1="229.99999999999997" x2="1080" y2="229.99999999999997" stroke="#eee"/>
<text x="62" y="233.99999999999997" text-anchor="end" font-size="10" font-family="Arial">14435.95</text>
<line x1="70" y1="170.00000000000006" x2="1080" y2="170.00000000000006" stroke="#eee"/>
<text x="62" y="174.00000000000006" text-anchor="end" font-size="10" font-family="Arial">15089.56</text>
<line x1="70" y1="110.00000000000009" x2="1080" y2="110.00000000000009" stroke="#eee"/>
<text x="62" y="114.00000000000009" text-anchor="end" font-size="10" font-family="Arial">15743.17</text>
<line x1="70" y1="50.0" x2="1080" y2="50.0" stroke="#eee"/>
<text x="62" y="54.0" text-anchor="end" font-size="10" font-family="Arial">16396.78</text>
<line x1="70.0" y1="350" x2="70.0" y2="355" stroke="#333"/>
<text x="70.0" y="368" transform="rotate(45 70.0,368)" font-size="9" font-family="Arial">2022-07</text>
<line x1="139.65517241379308" y1="350" x2="139.65517241379308" y2="355" stroke="#333"/>
<text x="139.65517241379308" y="368" transform="rotate(45 139.65517241379308,368)" font-size="9" font-family="Arial">2022-09</text>
<line x1="209.3103448275862" y1="350" x2="209.3103448275862" y2="355" stroke="#333"/>
<text x="209.3103448275862" y="368" transform="rotate(45 209.3103448275862,368)" font-size="9" font-family="Arial">2022-11</text>
<line x1="278.9655172413793" y1="350" x2="278.9655172413793" y2="355" stroke="#333"/>
<text x="278.9655172413793" y="368" transform="rotate(45 278.9655172413793,368)" font-size="9" font-family="Arial">2023-01</text>
<line x1="348.6206896551724" y1="350" x2="348.6206896551724" y2="355" stroke="#333"/>
<text x="348.6206896551724" y="368" transform="rotate(45 348.6206896551724,368)" font-size="9" font-family="Arial">2023-03</text>
<line x1="418.2758620689655" y1="350" x2="418.2758620689655" y2="355" stroke="#333"/>
<text x="418.2758620689655" y="368" transform="rotate(45 418.2758620689655,368)" font-size="9" font-family="Arial">2023-05</text>
<line x1="487.9310344827586" y1="350" x2="487.9310344827586" y2="355" stroke="#333"/>
<text x="487.9310344827586" y="368" transform="rotate(45 487.9310344827586,368)" font-size="9" font-family="Arial">2023-07</text>
<line x1="557.5862068965517" y1="350" x2="557.5862068965517" y2="355" stroke="#333"/>
<text x="557.5862068965517" y="368" transform="rotate(45 557.5862068965517,368)" font-size="9" font-family="Arial">2023-09</text>
<line x1="627.2413793103448" y1="350" x2="627.2413793103448" y2="355" stroke="#333"/>
<text x="627.2413793103448" y="368" transform="rotate(45 627.2413793103448,368)" font-size="9" font-family="Arial">2023-11</text>
<line x1="696.8965517241379" y1="350" x2="696.8965517241379" y2="355" stroke="#333"/>
<text x="696.8965517241379" y="368" transform="rotate(45 696.8965517241379,368)" font-size="9" font-family="Arial">2024-01</text>
<line x1="766.551724137931" y1="350" x2="766.551724137931" y2="355" stroke="#333"/>
<text x="766.551724137931" y="368" transform="rotate(45 766.551724137931,368)" font-size="9" font-family="Arial">2024-03</text>
<line x1="836.2068965517241" y1="350" x2="836.2068965517241" y2="355" stroke="#333"/>
<text x="836.2068965517241" y="368" transform="rotate(45 836.2068965517241,368)" font-size="9" font-family="Arial">2024-05</text>
<line x1="905.8620689655172" y1="350" x2="905.8620689655172" y2="355" stroke="#333"/>
<text x="905.8620689655172" y="368" transform="rotate(45 905.8620689655172,368)" font-size="9" font-family="Arial">2024-07</text>
<line x1="975.5172413793103" y1="350" x2="975.5172413793103" y2="355" stroke="#333"/>
<text x="975.5172413793103" y="368" transform="rotate(45 975.5172413793103,368)" font-size="9" font-family="Arial">2024-09</text>
<line x1="1045.1724137931035" y1="350" x2="1045.1724137931035" y2="355" stroke="#333"/>
<text x="1045.1724137931035" y="368" transform="rotate(45 1045.1724137931035,368)" font-size="9" font-family="Arial">2024-11</text>
<polyline fill="none" stroke="#1f77b4" stroke-width="2" points="70.0,182.8 104.8,184.6 139.7,244.9 174.5,219.0 209.3,263.3 244.1,252.1 279.0,262.7 313.8,350.0 348.6,187.4 383.4,231.7 418.3,108.1 453.1,186.7 487.9,159.9 522.8,149.8 557.6,197.4 592.4,123.7 627.2,203.7 662.1,184.5 696.9,162.1 731.7,218.5 766.6,68.7 801.4,131.6 836.2,50.0 871.0,138.6"/>
<rect x="910" y="40" width="10" height="10" fill="#1f77b4"/>
<text x="926" y="50" font-size="11" font-family="Arial">history</text>
<polyline fill="none" stroke="#d62728" stroke-width="2" points="905.9,159.9 940.7,149.8 975.5,197.4 1010.3,123.7 1045.2,203.7 1080.0,184.5"/>
<rect x="910" y="56" width="10" height="10" fill="#d62728"/>
<text x="926" y="66" font-size="11" font-family="Arial">forecast</text>
</svg>