<svg xmlns="http://www.w3.org/2000/svg" width="1100" height="420">
<text x="550.0" y="24" text-anchor="middle" font-size="18" font-family="Arial">Total Sector: Consumption vs Supply</text>
<line x1="70" y1="50" x2="70" y2="350" stroke="#333"/>
<line x1="70" y1="350" x2="1080" y2="350" stroke="#333"/>
<line x1="70" y1="350.0" x2="1080" y2="350.0" stroke="#eee"/>
<text x="62" y="354.0" text-anchor="end" font-size="10" font-family="Arial">11685.35</text>
<line x1="70" y1="290.0" x2="1080" y2="290.0" stroke="#eee"/>
<text x="62" y="294.0" text-anchor="end" font-size="10" font-family="Arial">12627.63</text>
<line x1="70" y1="229.99999999999997" x2="1080" y2="229.99999999999997" stroke="#eee"/>
<text x="62" y="233.99999999999997" text-anchor="end" font-size="10" font-family="Arial">13569.92</text>
<line x1="70" y1="170.00000000000006" x2="1080" y2="170.00000000000006" stroke="#eee"/>
<text x="62" y="174.00000000000006" text-anchor="end" font-size="10" font-family="Arial">14512.20</text>
<line x1="70" y1="110.00000000000003" x2="1080" y2="110.00000000000003" stroke="#eee"/>
<text x="62" y="114.00000000000003" text-anchor="end" font-size="10" font-family="Arial">15454.49</text>
<line x1="70" y1="50.0" x2="1080" y2="50.0" stroke="#eee"/>
<text x="62" y="54.0" text-anchor="end" font-size="10" font-family="Arial">16396.78</text>
<line x1="70.0" y1="350" x2="70.0" y2="355" stroke="#333"/>
<text x="70.0" y="368" transform="rotate(45 70.0,368)" font-size="9" font-family="Arial">2018-01</text>
<line x1="148.7012987012987" y1="350" x2="148.7012987012987" y2="355" stroke="#333"/>
<text x="148.7012987012987" y="368" transform="rotate(45 148.7012987012987,368)" font-size="9" font-family="Arial">2018-07</text>
<line x1="227.4025974025974" y1="350" x2="227.4025974025974" y2="355" stroke="#333"/>
<text x="227.4025974025974" y="368" transform="rotate(45 227.4025974025974,368)" font-size="9" font-family="Arial">2019-01</text>
<line x1="306.1038961038961" y1="350" x2="306.1038961038961" y2="355" stroke="#333"/>
<text x="306.1038961038961" y="368" transform="rotate(45 306.1038961038961,368)" font-size="9" font-family="Arial">2019-07</text>
<line x1="384.8051948051948" y1="350" x2="384.8051948051948" y2="355" stroke="#333"/>
<text x="384.8051948051948" y="368" transform="rotate(45 384.8051948051948,368)" font-size="9" font-family="Arial">2020-01</text>
<line x1="463.50649350649354" y1="350" x2="463.50649350649354" y2="355" stroke="#333"/>
<text x="463.50649350649354" y="368" transform="rotate(45 463.50649350649354,368)" font-size="9" font-family="Arial">2020-07</text>
<line x1="542.2077922077922" y1="350" x2="542.2077922077922" y2="355" stroke="#333"/>
<text x="542.2077922077922" y="368" transform="rotate(45 542.2077922077922,368)" font-size="9" font-family="Arial">2021-01</text>
<line x1="620.9090909090909" y1="350" x2="620.9090909090909" y2="355" stroke="#333"/>
<text x="620.9090909090909" y="368" transform="rotate(45 620.9090909090909,368)" font-size="9" font-family="Arial">2021-07</text>
<line x1="699.6103896103896" y1="350" x2="699.6103896103896" y2="355" stroke="#333"/>
<text x="699.6103896103896" y="368" transform="rotate(45 699.6103896103896,368)" font-size="9" font-family="Arial">2022-01</text>
<line x1="778.3116883116883" y1="350" x2="778.3116883116883" y2="355" stroke="#333"/>
<text x="778.3116883116883" y="368" transform="rotate(45 778.3116883116883,368)" font-size="9" font-family="Arial">2022-07</text>
<line x1="857.0129870129871" y1="350" x2="857.0129870129871" y2="355" stroke="#333"/>
<text x="857.0129870129871" y="368" transform="rotate(45 857.0129870129871,368)" font-size="9" font-family="Arial">2023-01</text>
<line x1="935.7142857142857" y1="350" x2="935.7142857142857" y2="355" stroke="#333"/>
<text x="935.7142857142857" y="368" transform="rotate(45 935.7142857142857,368)" font-size="9" font-family="Arial">2023-07</text>
<line x1="1014.4155844155844" y1="350" x2="1014.4155844155844" y2="355" stroke="#333"/>
<text x="1014.4155844155844" y="368" transform="rotate(45 1014.4155844155844,368)" font-size="9" font-family="Arial">2024-01</text>
<polyline fill="none" stroke="#1f77b4" stroke-width="2" points="70.0,256.3 83.1,323.8 96.2,200.8 109.4,227.8 122.5,206.8 135.6,244.1 148.7,186.6 161.8,180.8 174.9,243.4 188.1,197.4 201.2,231.2 214.3,219.8 227.4,195.7 240.5,290.7 253.6,162.4 266.8,178.9 279.9,158.4 293.0,231.5 306.1,170.7 319.2,179.9 332.3,204.7 345.5,196.0 358.6,220.0 371.7,214.6 384.8,190.1 397.9,230.8 411.0,233.0 424.2,350.0 437.3,249.5 450.4,247.8 463.5,211.1 476.6,185.9 489.7,220.0 502.9,184.1 516.0,238.6 529.1,212.2 542.2,230.0 555.3,278.7 568.4,148.5 581.6,180.4 594.7,173.9 607.8,287.0 620.9,251.8 634.0,228.8 647.1,214.7 660.3,146.6 673.4,193.9 686.5,170.4 699.6,182.2 712.7,276.9 725.8,149.1 739.0,172.6 752.1,147.3 765.2,170.3 778.3,142.1 791.4,143.4 804.5,185.2 817.7,167.2 830.8,198.0 843.9,190.2 857.0,197.6 870.1,258.1 883.2,145.3 896.4,176.0 909.5,90.3 922.6,144.8 935.7,126.2 948.8,119.2 961.9,152.3 975.1,101.1 988.2,156.6 1001.3,143.3 1014.4,127.7 1027.5,166.9 1040.6,63.0 1053.8,106.6 1066.9,50.0 1080.0,111.5"/>
<rect x="910" y="40" width="10" height="10" fill="#1f77b4"/>
<text x="926" y="50" font-size="11" font-family="Arial">consumption</text>
<polyline fill="none" stroke="#d62728" stroke-width="2" points="70.0,256.3 83.1,323.8 96.2,200.8 109.4,227.8 122.5,206.8 135.6,244.1 148.7,186.6 161.8,180.8 174.9,243.4 188.1,197.4 201.2,231.2 214.3,219.8 227.4,195.7 240.5,290.7 253.6,162.4 266.8,178.9 279.9,158.4 293.0,231.5 306.1,170.7 319.2,179.9 332.3,204.7 345.5,196.0 358.6,220.0 371.7,214.6 384.8,190.1 397.9,230.8 411.0,233.0 424.2,350.0 437.3,249.5 450.4,247.8 463.5,211.1 476.6,185.9 489.7,220.0 502.9,184.1 516.0,238.6 529.1,212.2 542.2,230.0 555.3,278.7 568.4,148.5 581.6,180.4 594.7,173.9 607.8,287.0 620.9,251.8 634.0,228.8 647.1,214.7 660.3,146.6 673.4,193.9 686.5,170.4 699.6,182.2 712.7,276.9 725.8,149.1 739.0,172.6 752.1,147.3 765.2,170.3 778.3,142.1 791.4,143.4 804.5,185.2 817.7,167.2 830.8,198.0 843.9,190.2 857.0,197.6 870.1,258.1 883.2,145.3 896.4,176.0 909.5,90.3 922.6,144.8 935.7,126.2 948.8,119.2 961.9,152.3 975.1,101.1 988.2,156.6 1001.3,143.3 1014.4,127.7 1027.5,167.1 1040.6,63.0 1053.8,106.6 1066.9,50.0 1080.0,111.5"/>
<rect x="910" y="56" width="10" height="10" fill="#d62728"/>
<text x="926" y="66" font-size="11" font-family="Arial">supply</text>
</svg>