<svg xmlns="http://www.w3.org/2000/svg" width="1100" height="420">
<text x="550.0" y="24" text-anchor="middle" font-size="18" font-family="Arial">Demand-Supply Ratio (Consumption / Supply)</text>
<line x1="70" y1="50" x2="70" y2="350" stroke="#333"/>
<line x1="70" y1="350" x2="1080" y2="350" stroke="#333"/>
<line x1="70" y1="350.0" x2="1080" y2="350.0" stroke="#eee"/>
<text x="62" y="354.0" text-anchor="end" font-size="10" font-family="Arial">1.00</text>
<line x1="70" y1="289.99999999989143" x2="1080" y2="289.99999999989143" stroke="#eee"/>
<text x="62" y="293.99999999989143" text-anchor="end" font-size="10" font-family="Arial">1.00</text>
<line x1="70" y1="230.0000000000543" x2="1080" y2="230.0000000000543" stroke="#eee"/>
<text x="62" y="234.0000000000543" text-anchor="end" font-size="10" font-family="Arial">1.00</text>
<line x1="70" y1="169.9999999999457" x2="1080" y2="169.9999999999457" stroke="#eee"/>
<text x="62" y="173.9999999999457" text-anchor="end" font-size="10" font-family="Arial">1.00</text>
<line x1="70" y1="110.0000000001086" x2="1080" y2="110.0000000001086" stroke="#eee"/>
<text x="62" y="114.0000000001086" text-anchor="end" font-size="10" font-family="Arial">1.00</text>
<line x1="70" y1="50.0" x2="1080" y2="50.0" stroke="#eee"/>
<text x="62" y="54.0" text-anchor="end" font-size="10" font-family="Arial">1.00</text>
<line x1="70.0" y1="350" x2="70.0" y2="355" stroke="#333"/>
<text x="70.0" y="368" transform="rotate(45 70.0,368)" font-size="9" font-family="Arial">2018-01</text>
<line x1="148.7012987012987" y1="350" x2="148.7012987012987" y2="355" stroke="#333"/>
<text x="148.7012987012987" y="368" transform="rotate(45 148.7012987012987,368)" font-size="9" font-family="Arial">2018-07</text>
<line x1="227.4025974025974" y1="350" x2="227.4025974025974" y2="355" stroke="#333"/>
<text x="227.4025974025974" y="368" transform="rotate(45 227.4025974025974,368)" font-size="9" font-family="Arial">2019-01</text>
<line x1="306.1038961038961" y1="350" x2="306.1038961038961" y2="355" stroke="#333"/>
<text x="306.1038961038961" y="368" transform="rotate(45 306.1038961038961,368)" font-size="9" font-family="Arial">2019-07</text>
<line x1="384.8051948051948" y1="350" x2="384.8051948051948" y2="355" stroke="#333"/>
<text x="384.8051948051948" y="368" transform="rotate(45 384.8051948051948,368)" font-size="9" font-family="Arial">2020-01</text>
<line x1="463.50649350649354" y1="350" x2="463.50649350649354" y2="355" stroke="#333"/>
<text x="463.50649350649354" y="368" transform="rotate(45 463.50649350649354,368)" font-size="9" font-family="Arial">2020-07</text>
<line x1="542.2077922077922" y1="350" x2="542.2077922077922" y2="355" stroke="#333"/>
<text x="542.2077922077922" y="368" transform="rotate(45 542.2077922077922,368)" font-size="9" font-family="Arial">2021-01</text>
<line x1="620.9090909090909" y1="350" x2="620.9090909090909" y2="355" stroke="#333"/>
<text x="620.9090909090909" y="368" transform="rotate(45 620.9090909090909,368)" font-size="9" font-family="Arial">2021-07</text>
<line x1="699.6103896103896" y1="350" x2="699.6103896103896" y2="355" stroke="#333"/>
<text x="699.6103896103896" y="368" transform="rotate(45 699.6103896103896,368)" font-size="9" font-family="Arial">2022-01</text>
<line x1="778.3116883116883" y1="350" x2="778.3116883116883" y2="355" stroke="#333"/>
<text x="778.3116883116883" y="368" transform="rotate(45 778.3116883116883,368)" font-size="9" font-family="Arial">2022-07</text>
<line x1="857.0129870129871" y1="350" x2="857.0129870129871" y2="355" stroke="#333"/>
<text x="857.0129870129871" y="368" transform="rotate(45 857.0129870129871,368)" font-size="9" font-family="Arial">2023-01</text>
<line x1="935.7142857142857" y1="350" x2="935.7142857142857" y2="355" stroke="#333"/>
<text x="935.7142857142857" y="368" transform="rotate(45 935.7142857142857,368)" font-size="9" font-family="Arial">2023-07</text>
<line x1="1014.4155844155844" y1="350" x2="1014.4155844155844" y2="355" stroke="#333"/>
<text x="1014.4155844155844" y="368" transform="rotate(45 1014.4155844155844,368)" font-size="9" font-family="Arial">2024-01</text>
<polyline fill="none" stroke="#1f77b4" stroke-width="2" points="70.0,304.8 83.1,304.8 96.2,304.8 109.4,304.8 122.5,304.8 135.6,304.8 148.7,304.8 161.8,304.8 174.9,304.8 188.1,304.8 201.2,304.8 214.3,304.8 227.4,304.8 240.5,304.8 253.6,304.8 266.8,304.8 279.9,304.8 293.0,304.8 306.1,304.8 319.2,304.8 332.3,304.8 345.5,304.8 358.6,304.8 371.7,304.8 384.8,304.8 397.9,304.8 411.0,304.8 424.2,304.8 437.3,304.8 450.4,304.8 463.5,304.8 476.6,304.8 489.7,304.8 502.9,304.8 516.0,304.8 529.1,304.8 542.2,304.8 555.3,304.8 568.4,304.8 581.6,304.8 594.7,304.8 607.8,304.8 620.9,304.8 634.0,304.8 647.1,304.8 660.3,304.8 673.4,304.8 686.5,304.8 699.6,304.8 712.7,304.8 725.8,304.8 739.0,304.8 752.1,304.8 765.2,304.8 778.3,304.8 791.4,304.8 804.5,304.8 817.7,304.8 830.8,304.8 843.9,304.8 857.0,304.8 870.1,304.8 883.2,304.8 896.4,301.8 909.5,304.8 922.6,302.2 935.7,304.8 948.8,304.8 961.9,304.8 975.1,304.8 988.2,304.8 1001.3,304.8 1014.4,304.8 1027.5,50.0 1040.6,350.0 1053.8,304.8 1066.9,304.8 1080.0,304.8"/>
<rect x="910" y="40" width="10" height="10" fill="#1f77b4"/>
<text x="926" y="50" font-size="11" font-family="Arial">ratio</text>
</svg>